<?xml version="1.0" standalone="no"?>
<!DOCTYPE svg PUBLIC "-//W3C//DTD SVG 20010904//EN"
 "http://www.w3.org/TR/2001/REC-SVG-20010904/DTD/svg10.dtd">
<svg version="1.0" xmlns="http://www.w3.org/2000/svg"
 width="431.000000pt" height="117.000000pt" viewBox="0 0 431.000000 117.000000"
 preserveAspectRatio="xMidYMid meet">

<g transform="translate(0.000000,117.000000) scale(0.100000,-0.100000)"
fill="#000000" stroke="none">
<path d="M4027 1103 c-43 -65 -37 -87 15 -56 18 11 32 25 31 30 -1 6 7 19 17
28 25 22 25 35 2 35 -10 0 -26 -14 -36 -31 -10 -17 -20 -28 -22 -26 -8 8 30
66 46 71 13 3 13 4 0 5 -9 0 -33 -25 -53 -56z m-2 -33 c-9 -14 8 -13 23 2 6 6
14 9 18 6 3 -4 -8 -14 -26 -23 -35 -18 -50 -14 -30 10 14 17 25 20 15 5z"/>
<path d="M4130 1146 c0 -7 -9 -26 -21 -42 l-21 -29 26 28 c23 25 35 57 21 57
-3 0 -5 -6 -5 -14z"/>
<path d="M1794 991 c-40 -25 -79 -37 -70 -22 5 8 -25 11 -103 11 -61 0 -114 0
-118 1 -4 0 -9 -5 -11 -13 -2 -9 0 -8 7 2 6 8 11 12 11 7 0 -4 -57 -195 -126
-425 -107 -352 -141 -452 -172 -514 -2 -5 31 -8 73 -8 74 0 76 1 70 22 -16 48
-5 119 40 263 26 82 50 156 54 163 11 20 207 -79 214 -110 34 -136 49 -230 44
-280 l-5 -58 89 0 89 0 -20 39 c-11 22 -35 113 -54 203 -91 426 -126 599 -126
625 1 28 25 71 35 61 3 -3 -1 -11 -10 -18 -8 -7 -15 -20 -14 -29 0 -11 3 -9 9
6 6 14 31 32 63 47 30 13 58 29 61 35 10 15 6 14 -30 -8z m-195 -316 c18 -91
31 -168 28 -171 -6 -7 -147 64 -147 74 -1 15 74 262 80 262 3 0 20 -74 39
-165z"/>
<path d="M1546 775 c-4 -15 -5 -30 -1 -33 3 -3 5 0 5 7 0 7 5 9 10 6 12 -8 13
15 1 33 -6 10 -10 7 -15 -13z"/>
<path d="M1571 714 c0 -11 3 -14 6 -6 3 7 2 16 -1 19 -3 4 -6 -2 -5 -13z"/>
<path d="M1581 674 c0 -11 3 -14 6 -6 3 7 2 16 -1 19 -3 4 -6 -2 -5 -13z"/>
<path d="M1591 624 c0 -11 3 -14 6 -6 3 7 2 16 -1 19 -3 4 -6 -2 -5 -13z"/>
<path d="M1491 584 c0 -11 3 -14 6 -6 3 7 2 16 -1 19 -3 4 -6 -2 -5 -13z"/>
<path d="M1601 574 c0 -11 3 -14 6 -6 3 7 2 16 -1 19 -3 4 -6 -2 -5 -13z"/>
<path d="M1547 549 c7 -7 15 -10 18 -7 3 3 -2 9 -12 12 -14 6 -15 5 -6 -5z"/>
<path d="M1606 535 c-3 -8 -1 -15 4 -15 6 0 10 7 10 15 0 8 -2 15 -4 15 -2 0
-6 -7 -10 -15z"/>
<path d="M4164 991 c-40 -25 -79 -37 -70 -22 5 8 -24 11 -98 11 -58 0 -107 -4
-110 -9 -7 -10 -53 -160 -176 -566 -48 -160 -97 -310 -109 -333 l-22 -43 73 3
73 3 -3 65 c-2 55 5 90 47 223 27 87 51 161 54 163 3 3 50 -17 106 -45 112
-57 98 -36 136 -206 19 -87 23 -136 12 -177 l-7 -28 89 0 90 0 -20 45 c-11 25
-33 107 -49 183 -16 75 -34 160 -40 187 -6 28 -9 66 -6 85 4 26 3 30 -4 15 -5
-11 -9 -16 -9 -11 -1 5 -17 89 -38 187 -31 155 -34 181 -23 208 7 17 17 31 22
31 7 0 6 -5 -1 -14 -6 -7 16 0 48 15 33 16 62 33 66 39 9 14 5 13 -31 -9z
m-190 -331 c19 -85 32 -157 30 -159 -5 -6 -144 60 -150 71 -5 8 62 243 74 263
4 6 8 3 10 -5 1 -8 18 -85 36 -170z"/>
<path d="M3920 781 c0 -6 5 -13 10 -16 6 -3 10 1 10 9 0 9 -4 16 -10 16 -5 0
-10 -4 -10 -9z"/>
<path d="M3951 674 c0 -11 3 -14 6 -6 3 7 2 16 -1 19 -3 4 -6 -2 -5 -13z"/>
<path d="M3962 630 c0 -14 2 -19 5 -12 2 6 2 18 0 25 -3 6 -5 1 -5 -13z"/>
<path d="M3976 535 c-3 -8 -1 -15 4 -15 6 0 10 7 10 15 0 8 -2 15 -4 15 -2 0
-6 -7 -10 -15z"/>
<path d="M20 986 c0 -2 8 -10 17 -17 11 -10 14 -10 9 -1 -5 9 13 12 79 12 85
0 86 0 79 -22 -3 -13 -5 -21 -3 -18 2 3 13 15 23 28 l19 22 -111 0 c-62 0
-112 -2 -112 -4z"/>
<path d="M471 987 c2 -1 13 -9 23 -17 13 -10 17 -10 12 -2 -5 9 14 12 85 12
51 0 89 -3 86 -7 -4 -3 -39 -5 -79 -4 l-73 2 0 -44 c0 -32 -10 -64 -36 -113
-20 -38 -41 -68 -47 -67 -5 1 -16 -5 -24 -15 -12 -15 -11 -16 5 -3 9 7 17 9
17 3 0 -11 -20 -29 -35 -32 -5 -1 -12 -4 -15 -7 -3 -4 1 -3 9 2 9 5 12 4 10
-4 -3 -7 -7 -11 -10 -9 -3 2 -13 -3 -23 -11 -14 -12 -19 -12 -34 2 -9 9 -21
16 -27 16 -5 0 -11 5 -14 12 -2 7 1 9 9 4 9 -5 11 -4 6 4 -4 6 -11 9 -16 6
-10 -6 -61 72 -90 139 -14 29 -20 61 -18 82 l4 34 -68 0 -67 0 16 -42 c14 -36
17 -98 21 -390 3 -318 -2 -438 -23 -490 -6 -16 1 -18 69 -18 42 0 76 1 76 3 0
1 -7 24 -15 51 -12 39 -15 109 -15 330 l1 281 30 -33 c17 -19 28 -40 25 -48
-3 -8 0 -13 7 -11 7 1 12 -8 11 -20 0 -12 3 -20 7 -17 10 6 49 -68 49 -91 0
-11 11 -15 40 -15 22 0 39 3 39 8 -3 19 2 33 11 27 6 -4 7 1 3 11 -4 10 -2 15
4 11 5 -3 9 4 9 16 -1 13 4 21 12 19 8 -1 11 2 7 7 -7 12 33 95 64 131 l20 25
0 -285 c1 -262 -3 -314 -23 -377 -7 -23 -6 -23 69 -23 70 0 76 2 70 18 -22 52
-26 132 -23 473 3 280 7 382 17 406 7 18 16 31 21 28 4 -2 15 4 25 15 18 20
17 20 -100 20 -65 0 -116 -1 -114 -3z m-97 -329 c9 9 16 11 16 5 0 -6 -7 -16
-15 -23 -13 -10 -19 -10 -35 5 -11 10 -20 23 -20 29 1 6 9 1 19 -11 17 -20 19
-20 35 -5z"/>
<path d="M2430 960 c29 -30 42 -30 15 0 -10 11 -15 20 -10 20 4 0 14 -8 21
-17 19 -25 20 -903 2 -921 -9 -9 -3 -12 30 -12 39 0 42 2 32 19 -6 13 -10 145
-10 363 0 318 1 341 16 319 9 -12 17 -33 18 -46 0 -13 4 -23 8 -22 11 3 139
-265 134 -280 -3 -8 -2 -12 2 -9 5 3 41 -62 82 -144 52 -106 71 -156 68 -174
-5 -26 -5 -26 64 -26 65 0 68 1 58 19 -14 27 -14 875 1 902 5 11 15 16 21 13
7 -5 8 -2 3 6 -6 9 -4 12 7 8 8 -4 21 -2 28 2 8 5 -32 8 -91 8 -61 0 -96 -3
-84 -8 48 -18 50 -29 55 -289 l6 -246 2 241 c2 231 1 242 -19 268 -11 14 -17
26 -12 26 5 0 16 -13 26 -29 15 -26 17 -63 17 -325 0 -163 -4 -296 -9 -296
-13 0 -53 99 -45 112 4 7 3 8 -4 4 -14 -8 -36 40 -26 56 4 6 3 8 -3 5 -13 -8
-34 38 -27 60 4 13 3 14 -3 5 -12 -16 -69 100 -58 118 5 8 4 11 -3 6 -14 -8
-35 30 -28 50 3 8 2 13 -3 10 -4 -3 -27 35 -50 84 -32 66 -41 96 -37 117 l6
28 -112 1 -113 0 25 -26z"/>
<path d="M2635 959 c-4 -17 -4 -33 -1 -36 3 -4 6 3 6 15 0 11 7 28 16 36 13
14 13 16 1 16 -9 0 -18 -13 -22 -31z"/>
<path d="M3863 975 c-3 -9 -3 -18 -1 -21 3 -3 8 4 11 16 6 23 -1 27 -10 5z"/>
<path d="M2964 937 c-2 -7 -3 -102 -2 -212 l3 -200 5 213 c3 116 4 212 2 212
-1 0 -5 -6 -8 -13z"/>
<path d="M512 920 c0 -14 2 -19 5 -12 2 6 2 18 0 25 -3 6 -5 1 -5 -13z"/>
<path d="M4062 890 c0 -14 2 -19 5 -12 2 6 2 18 0 25 -3 6 -5 1 -5 -13z"/>
<path d="M641 884 c0 -11 3 -14 6 -6 3 7 2 16 -1 19 -3 4 -6 -2 -5 -13z"/>
<path d="M2651 885 c0 -5 13 -35 29 -65 16 -30 29 -50 29 -45 0 6 -13 35 -29
65 -16 30 -29 51 -29 45z"/>
<path d="M210 875 c0 -5 5 -17 10 -25 5 -8 10 -10 10 -5 0 6 -5 17 -10 25 -5
8 -10 11 -10 5z"/>
<path d="M1691 864 c0 -11 3 -14 6 -6 3 7 2 16 -1 19 -3 4 -6 -2 -5 -13z"/>
<path d="M3826 854 c-4 -14 -5 -28 -3 -31 3 -2 8 8 11 23 4 14 5 28 3 31 -3 2
-8 -8 -11 -23z"/>
<path d="M635 515 c0 -192 1 -270 2 -172 2 98 2 256 0 350 -1 95 -3 15 -2
-178z"/>
<path d="M476 823 c-6 -14 -5 -15 5 -6 7 7 10 15 7 18 -3 3 -9 -2 -12 -12z"/>
<path d="M1701 824 c0 -11 3 -14 6 -6 3 7 2 16 -1 19 -3 4 -6 -2 -5 -13z"/>
<path d="M240 810 c6 -11 13 -20 16 -20 2 0 0 9 -6 20 -6 11 -13 20 -16 20 -2
0 0 -9 6 -20z"/>
<path d="M84 555 c0 -148 2 -211 3 -138 2 72 2 194 0 270 -1 76 -3 17 -3 -132z"/>
<path d="M1441 804 c0 -11 3 -14 6 -6 3 7 2 16 -1 19 -3 4 -6 -2 -5 -13z"/>
<path d="M450 780 c-6 -11 -8 -20 -6 -20 3 0 10 9 16 20 6 11 8 20 6 20 -3 0
-10 -9 -16 -20z"/>
<path d="M1711 774 c0 -11 3 -14 6 -6 3 7 2 16 -1 19 -3 4 -6 -2 -5 -13z"/>
<path d="M270 761 c5 -11 15 -23 21 -27 6 -3 3 5 -6 20 -20 30 -30 35 -15 7z"/>
<path d="M3801 773 c-1 -6 -4 -20 -7 -30 -5 -17 -5 -17 6 0 6 10 9 23 6 30 -3
9 -5 9 -5 0z"/>
<path d="M4091 734 c0 -11 3 -14 6 -6 3 7 2 16 -1 19 -3 4 -6 -2 -5 -13z"/>
<path d="M1721 724 c0 -11 3 -14 6 -6 3 7 2 16 -1 19 -3 4 -6 -2 -5 -13z"/>
<path d="M1411 713 c-1 -6 -4 -20 -7 -30 -5 -17 -5 -17 6 0 6 10 9 23 6 30 -3
9 -5 9 -5 0z"/>
<path d="M2520 695 c0 -8 4 -15 10 -15 5 0 7 7 4 15 -4 8 -8 15 -10 15 -2 0
-4 -7 -4 -15z"/>
<path d="M500 660 c-9 -16 -8 -18 5 -14 8 4 15 12 15 20 0 20 -7 17 -20 -6z"/>
<path d="M2750 671 c0 -6 4 -13 10 -16 6 -3 7 1 4 9 -7 18 -14 21 -14 7z"/>
<path d="M200 652 c0 -10 7 -19 14 -19 11 0 13 5 5 19 -5 10 -12 18 -14 18 -3
0 -5 -8 -5 -18z"/>
<path d="M514 505 c0 -77 2 -107 3 -67 2 40 2 103 0 140 -2 37 -3 4 -3 -73z"/>
<path d="M470 610 c-6 -11 -8 -20 -6 -20 3 0 10 9 16 20 6 11 8 20 6 20 -3 0
-10 -9 -16 -20z"/>
<path d="M2560 621 c0 -6 4 -13 10 -16 6 -3 7 1 4 9 -7 18 -14 21 -14 7z"/>
<path d="M4121 594 c0 -11 3 -14 6 -6 3 7 2 16 -1 19 -3 4 -6 -2 -5 -13z"/>
<path d="M956 541 c-14 -31 -16 -43 -6 -60 6 -12 15 -19 20 -16 6 4 7 -2 3
-12 -6 -16 -5 -16 11 -4 9 8 15 20 12 28 -3 8 -1 11 4 8 6 -4 10 5 10 20 0 17
-4 24 -12 19 -7 -4 -8 -3 -4 4 4 7 1 21 -7 32 -13 19 -15 18 -31 -19z m15 -4
c-10 -9 -11 -8 -5 6 3 10 9 15 12 12 3 -3 0 -11 -7 -18z"/>
<path d="M2106 542 c-17 -37 -17 -40 0 -76 l18 -37 18 33 c22 42 22 57 0 91
l-19 28 -17 -39z m34 -7 c14 -19 14 -19 -2 -6 -10 7 -18 18 -18 24 0 6 1 8 3
6 1 -2 9 -13 17 -24z m-7 -72 c-3 -7 -6 -13 -8 -13 -2 0 -5 6 -8 13 -3 8 1 14
8 14 7 0 11 -6 8 -14z"/>
<path d="M3347 545 c-16 -33 -16 -38 0 -76 l16 -42 18 34 c23 43 23 58 1 91
l-18 28 -17 -35z m27 -1 c3 -8 2 -12 -4 -9 -6 3 -10 10 -10 16 0 14 7 11 14
-7z"/>
<path d="M299 468 l-6 -28 68 0 c60 0 68 2 62 17 -4 11 -8 12 -11 5 -2 -7 -23
-12 -52 -12 -43 0 -49 3 -52 23 -3 20 -4 20 -9 -5z"/>
<path d="M2900 426 c0 -8 -5 -16 -10 -18 -7 -2 -6 -10 3 -21 12 -17 13 -15 14
17 1 20 -1 36 -3 36 -2 0 -4 -6 -4 -14z"/>
<path d="M590 20 l-85 -6 88 -2 c52 -1 87 2 87 8 0 6 -1 9 -2 8 -2 -1 -41 -5
-88 -8z"/>
<path d="M2405 20 c-3 -5 1 -10 10 -10 9 0 13 5 10 10 -3 6 -8 10 -10 10 -2 0
-7 -4 -10 -10z"/>
<path d="M2555 20 c-4 -6 3 -10 14 -10 25 0 27 6 6 13 -8 4 -17 2 -20 -3z"/>
<path d="M3000 20 c0 -6 7 -10 15 -10 8 0 15 2 15 4 0 2 -7 6 -15 10 -8 3 -15
1 -15 -4z"/>
<path d="M63 13 c20 -2 54 -2 75 0 20 2 3 4 -38 4 -41 0 -58 -2 -37 -4z"/>
<path d="M208 13 c12 -2 30 -2 40 0 9 3 -1 5 -23 4 -22 0 -30 -2 -17 -4z"/>
<path d="M468 13 c6 -2 18 -2 25 0 6 3 1 5 -13 5 -14 0 -19 -2 -12 -5z"/>
</g>
</svg>
